<svg id="visual" viewBox="0 0 960 150" width="960" height="150" xmlns="http://www.w3.org/2000/svg" xmlns:xlink="http://www.w3.org/1999/xlink" version="1.1"><path d="M0 20L13.3 21.8C26.7 23.7 53.3 27.3 80 29.2C106.7 31 133.3 31 160 29C186.7 27 213.3 23 240 21.5C266.7 20 293.3 21 320 24.5C346.7 28 373.3 34 400 38.5C426.7 43 453.3 46 480 47.7C506.7 49.3 533.3 49.7 560 46C586.7 42.3 613.3 34.7 640 28.7C666.7 22.7 693.3 18.3 720 18.3C746.7 18.3 773.3 22.7 800 29.5C826.7 36.3 853.3 45.7 880 45.5C906.7 45.3 933.3 35.7 946.7 30.8L960 26L960 151L946.7 151C933.3 151 906.7 151 880 151C853.3 151 826.7 151 800 151C773.3 151 746.7 151 720 151C693.3 151 666.7 151 640 151C613.3 151 586.7 151 560 151C533.3 151 506.7 151 480 151C453.3 151 426.7 151 400 151C373.3 151 346.7 151 320 151C293.3 151 266.7 151 240 151C213.3 151 186.7 151 160 151C133.3 151 106.7 151 80 151C53.3 151 26.7 151 13.3 151L0 151Z" fill="#acacac"></path><path d="M0 65L13.3 65.7C26.7 66.3 53.3 67.7 80 68C106.7 68.3 133.3 67.7 160 64.8C186.7 62 213.3 57 240 51.5C266.7 46 293.3 40 320 41.5C346.7 43 373.3 52 400 53.2C426.7 54.3 453.3 47.7 480 44.2C506.7 40.7 533.3 40.3 560 41.3C586.7 42.3 613.3 44.7 640 49.7C666.7 54.7 693.3 62.3 720 61.3C746.7 60.3 773.3 50.7 800 44.7C826.7 38.7 853.3 36.3 880 35.5C906.7 34.7 933.3 35.3 946.7 35.7L960 36L960 151L946.7 151C933.3 151 906.7 151 880 151C853.3 151 826.7 151 800 151C773.3 151 746.7 151 720 151C693.3 151 666.7 151 640 151C613.3 151 586.7 151 560 151C533.3 151 506.7 151 480 151C453.3 151 426.7 151 400 151C373.3 151 346.7 151 320 151C293.3 151 266.7 151 240 151C213.3 151 186.7 151 160 151C133.3 151 106.7 151 80 151C53.3 151 26.7 151 13.3 151L0 151Z" fill="#978ea3"></path><path d="M0 53L13.3 57.2C26.7 61.3 53.3 69.7 80 69.2C106.7 68.7 133.3 59.3 160 54.5C186.7 49.7 213.3 49.3 240 52.2C266.7 55 293.3 61 320 61.3C346.7 61.7 373.3 56.3 400 53.5C426.7 50.7 453.3 50.3 480 54.2C506.7 58 533.3 66 560 70.8C586.7 75.7 613.3 77.3 640 78.2C666.7 79 693.3 79 720 76C746.7 73 773.3 67 800 65.7C826.7 64.3 853.3 67.7 880 67.2C906.7 66.7 933.3 62.3 946.7 60.2L960 58L960 151L946.7 151C933.3 151 906.7 151 880 151C853.3 151 826.7 151 800 151C773.3 151 746.7 151 720 151C693.3 151 666.7 151 640 151C613.3 151 586.7 151 560 151C533.3 151 506.7 151 480 151C453.3 151 426.7 151 400 151C373.3 151 346.7 151 320 151C293.3 151 266.7 151 240 151C213.3 151 186.7 151 160 151C133.3 151 106.7 151 80 151C53.3 151 26.7 151 13.3 151L0 151Z" fill="#81719a"></path><path d="M0 69L13.3 70.3C26.7 71.7 53.3 74.3 80 79.2C106.7 84 133.3 91 160 93.5C186.7 96 213.3 94 240 93.5C266.7 93 293.3 94 320 91.5C346.7 89 373.3 83 400 80.5C426.7 78 453.3 79 480 81.2C506.7 83.3 533.3 86.7 560 85.3C586.7 84 613.3 78 640 77.7C666.7 77.3 693.3 82.7 720 85.2C746.7 87.7 773.3 87.3 800 88.3C826.7 89.3 853.3 91.7 880 91.5C906.7 91.3 933.3 88.7 946.7 87.3L960 86L960 151L946.7 151C933.3 151 906.7 151 880 151C853.3 151 826.7 151 800 151C773.3 151 746.7 151 720 151C693.3 151 666.7 151 640 151C613.3 151 586.7 151 560 151C533.3 151 506.7 151 480 151C453.3 151 426.7 151 400 151C373.3 151 346.7 151 320 151C293.3 151 266.7 151 240 151C213.3 151 186.7 151 160 151C133.3 151 106.7 151 80 151C53.3 151 26.7 151 13.3 151L0 151Z" fill="#6a5591"></path><path d="M0 113L13.3 110.8C26.7 108.7 53.3 104.3 80 103.5C106.7 102.7 133.3 105.3 160 106C186.7 106.7 213.3 105.3 240 104.7C266.7 104 293.3 104 320 102.5C346.7 101 373.3 98 400 95.8C426.7 93.7 453.3 92.3 480 93.3C506.7 94.3 533.3 97.7 560 99.3C586.7 101 613.3 101 640 98.5C666.7 96 693.3 91 720 89.3C746.7 87.7 773.3 89.3 800 91C826.7 92.7 853.3 94.3 880 96.8C906.7 99.3 933.3 102.7 946.7 104.3L960 106L960 151L946.7 151C933.3 151 906.7 151 880 151C853.3 151 826.7 151 800 151C773.3 151 746.7 151 720 151C693.3 151 666.7 151 640 151C613.3 151 586.7 151 560 151C533.3 151 506.7 151 480 151C453.3 151 426.7 151 400 151C373.3 151 346.7 151 320 151C293.3 151 266.7 151 240 151C213.3 151 186.7 151 160 151C133.3 151 106.7 151 80 151C53.3 151 26.7 151 13.3 151L0 151Z" fill="#523a87"></path><path d="M0 105L13.3 105C26.7 105 53.3 105 80 107.7C106.7 110.3 133.3 115.7 160 118.7C186.7 121.7 213.3 122.3 240 121.7C266.7 121 293.3 119 320 115.7C346.7 112.3 373.3 107.7 400 105.2C426.7 102.7 453.3 102.3 480 102.7C506.7 103 533.3 104 560 107.2C586.7 110.3 613.3 115.7 640 119.2C666.7 122.7 693.3 124.3 720 124C746.7 123.7 773.3 121.3 800 117.5C826.7 113.7 853.3 108.3 880 106.5C906.7 104.7 933.3 106.3 946.7 107.2L960 108L960 151L946.7 151C933.3 151 906.7 151 880 151C853.3 151 826.7 151 800 151C773.3 151 746.7 151 720 151C693.3 151 666.7 151 640 151C613.3 151 586.7 151 560 151C533.3 151 506.7 151 480 151C453.3 151 426.7 151 400 151C373.3 151 346.7 151 320 151C293.3 151 266.7 151 240 151C213.3 151 186.7 151 160 151C133.3 151 106.7 151 80 151C53.3 151 26.7 151 13.3 151L0 151Z" fill="#351e7d"></path><path d="M0 125L13.3 126C26.7 127 53.3 129 80 129.8C106.7 130.7 133.3 130.3 160 131.8C186.7 133.3 213.3 136.7 240 136.5C266.7 136.3 293.3 132.7 320 131.7C346.7 130.7 373.3 132.3 400 131.8C426.7 131.3 453.3 128.7 480 129.3C506.7 130 533.3 134 560 136.3C586.7 138.7 613.3 139.3 640 139.7C666.7 140 693.3 140 720 137.8C746.7 135.7 773.3 131.3 800 128.3C826.7 125.3 853.3 123.7 880 125C906.7 126.3 933.3 130.7 946.7 132.8L960 135L960 151L946.7 151C933.3 151 906.7 151 880 151C853.3 151 826.7 151 800 151C773.3 151 746.7 151 720 151C693.3 151 666.7 151 640 151C613.3 151 586.7 151 560 151C533.3 151 506.7 151 480 151C453.3 151 426.7 151 400 151C373.3 151 346.7 151 320 151C293.3 151 266.7 151 240 151C213.3 151 186.7 151 160 151C133.3 151 106.7 151 80 151C53.3 151 26.7 151 13.3 151L0 151Z" fill="#020073"></path></svg>