<svg xmlns="http://www.w3.org/2000/svg" version="1.1" xmlns:xlink="http://www.w3.org/1999/xlink" xmlns:svgjs="http://svgjs.dev/svgjs" width="1440" height="560" preserveAspectRatio="none" viewBox="0 0 1440 560"><g mask="url(&quot;#SvgjsMask1968&quot;)" fill="none"><rect width="1440" height="560" x="0" y="0" fill="url(&quot;#SvgjsLinearGradient1969&quot;)"></rect><path d="M160.27733332563727 79.29120128905112L80.94312409486088 7.858358446489007 9.510281252298768 87.1925676772654 88.84449048307516 158.6254105198275z" fill="rgba(18, 29, 103, 0.38)" class="triangle-float3"></path><path d="M305.6497458380307 319.4659865792511L268.05380214179934 450.578623655318 399.1664392178662 488.17456735154934 436.76238291409754 357.06193027548244z" fill="rgba(18, 29, 103, 0.38)" class="triangle-float2"></path><path d="M-57.46 75.2 a129.14 129.14 0 1 0 258.28 0 a129.14 129.14 0 1 0 -258.28 0z" fill="rgba(18, 29, 103, 0.38)" class="triangle-float3"></path><path d="M643.574,584.138C680.209,585.86,720.476,582.868,741.286,552.669C764.5,518.981,766.106,472.708,744.144,438.191C723.45,405.667,682.114,398.246,643.574,399.098C606.871,399.909,568.649,410.606,550.419,442.472C532.287,474.167,540.516,513.663,560.578,544.173C578.66,571.671,610.7,582.592,643.574,584.138" fill="rgba(18, 29, 103, 0.38)" class="triangle-float2"></path><path d="M202.55,519.005C243.243,519.156,276.35,488.691,295.058,452.553C312.235,419.372,308.444,381.116,291.049,348.049C272.141,312.106,243.163,276.634,202.55,276.703C162.014,276.772,133.309,312.404,114.569,348.348C97.461,381.161,94.263,418.982,111.22,451.873C129.776,487.867,162.054,518.855,202.55,519.005" fill="rgba(18, 29, 103, 0.38)" class="triangle-float3"></path><path d="M1186.33 252.88 a109.33 109.33 0 1 0 218.66 0 a109.33 109.33 0 1 0 -218.66 0z" fill="rgba(18, 29, 103, 0.38)" class="triangle-float3"></path><path d="M1294.9427367706132 347.9226853049237L1357.865601824839 264.42122307319346 1274.3641395931088 201.49835801896765 1211.441274538883 284.9998202506979z" fill="rgba(18, 29, 103, 0.38)" class="triangle-float3"></path><path d="M902.2,281.424C941.821,280.164,972.873,251.385,992.497,216.942C1011.889,182.907,1020.747,141.597,1001.21,107.645C981.633,73.622,941.44,61.009,902.2,60.016C860.734,58.967,815.932,67.129,794.112,102.405C771.402,139.119,779.058,186.066,801.371,223.022C822.888,258.659,860.592,282.748,902.2,281.424" fill="rgba(18, 29, 103, 0.38)" class="triangle-float2"></path><path d="M1096.215,109.606C1114.753,109.303,1132.545,100.535,1141.531,84.318C1150.273,68.542,1146.823,49.758,1138.14,33.949C1129.054,17.407,1115.085,1.497,1096.215,1.811C1077.695,2.119,1065.822,19.22,1056.641,35.307C1047.569,51.203,1039.653,69.69,1048.257,85.843C1057.246,102.72,1077.096,109.919,1096.215,109.606" fill="rgba(18, 29, 103, 0.38)" class="triangle-float3"></path><path d="M549.28 102.96 a126.2 126.2 0 1 0 252.4 0 a126.2 126.2 0 1 0 -252.4 0z" fill="rgba(18, 29, 103, 0.38)" class="triangle-float3"></path><path d="M277.806,158.759C307.811,157.929,336.658,144.292,351.333,118.108C365.715,92.447,362.06,60.969,346.663,35.903C332.002,12.034,305.777,-0.09,277.806,-1.596C246.396,-3.287,211.982,1.387,194.788,27.727C176.3,56.051,178.778,93.807,196.88,122.379C213.845,149.156,246.119,159.635,277.806,158.759" fill="rgba(18, 29, 103, 0.38)" class="triangle-float3"></path><path d="M1148.9057678282436 238.76603393002074L1229.5099244044495 268.103547681892 1258.8474381563208 187.4993911056861 1178.2432815801149 158.16187735381482z" fill="rgba(18, 29, 103, 0.38)" class="triangle-float1"></path><path d="M132.687,286.81C152.855,286.545,170.31,274.331,180.634,257.003C191.237,239.206,195.845,216.765,184.9,199.176C174.398,182.299,152.547,179.11,132.687,179.951C114.567,180.718,97.392,188.024,87.61,203.296C76.966,219.912,73.132,240.929,82.505,258.294C92.3,276.44,112.068,287.081,132.687,286.81" fill="rgba(18, 29, 103, 0.38)" class="triangle-float3"></path><path d="M1006.062,501.096C1036.461,502.549,1068.152,491.325,1083.149,464.842C1097.977,438.656,1090.214,406.464,1074.009,381.107C1059.135,357.833,1033.678,343.698,1006.062,344.224C979.338,344.733,955.755,360.428,942.454,383.612C929.219,406.681,928.104,434.647,940.767,458.035C954.072,482.608,978.15,499.762,1006.062,501.096" fill="rgba(18, 29, 103, 0.38)" class="triangle-float1"></path></g><defs><mask id="SvgjsMask1968"><rect width="1440" height="560" fill="#ffffff"></rect></mask><linearGradient x1="84.72%" y1="-39.29%" x2="15.28%" y2="139.29%" gradientUnits="userSpaceOnUse" id="SvgjsLinearGradient1969"><stop stop-color="rgba(14, 42, 71, 1)" offset="0"></stop><stop stop-color="rgba(0, 5, 12, 1)" offset="0.84"></stop><stop stop-color="rgba(0, 5, 12, 1)" offset="1"></stop></linearGradient><style>
                @keyframes float1 {
                    0%{transform: translate(0, 0)}
                    50%{transform: translate(-10px, 0)}
                    100%{transform: translate(0, 0)}
                }

                .triangle-float1 {
                    animation: float1 5s infinite;
                }

                @keyframes float2 {
                    0%{transform: translate(0, 0)}
                    50%{transform: translate(-5px, -5px)}
                    100%{transform: translate(0, 0)}
                }

                .triangle-float2 {
                    animation: float2 4s infinite;
                }

                @keyframes float3 {
                    0%{transform: translate(0, 0)}
                    50%{transform: translate(0, -10px)}
                    100%{transform: translate(0, 0)}
                }

                .triangle-float3 {
                    animation: float3 6s infinite;
                }
            </style></defs></svg>